<?xml version="1.0" standalone="no"?>
<!DOCTYPE svg PUBLIC "-//W3C//DTD SVG 20010904//EN"
 "http://www.w3.org/TR/2001/REC-SVG-20010904/DTD/svg10.dtd">
<svg version="1.0" xmlns="http://www.w3.org/2000/svg"
 width="1024.000000pt" height="1024.000000pt" viewBox="0 0 1024.000000 1024.000000"
 preserveAspectRatio="xMidYMid meet">

<g transform="translate(0.000000,1024.000000) scale(0.100000,-0.100000)"
fill="#000000" stroke="none">
<path d="M4872 9269 c-410 -25 -822 -113 -1188 -254 -132 -51 -354 -154 -354
-165 0 -4 10 -12 23 -17 12 -6 54 -39 94 -72 l71 -62 123 52 c520 219 1111
322 1649 290 171 -11 421 -40 515 -61 22 -5 74 -16 115 -26 858 -192 1665
-713 2207 -1426 277 -364 504 -822 624 -1257 91 -334 122 -574 123 -946 0
-291 -9 -401 -55 -650 -161 -874 -700 -1693 -1411 -2145 -48 -30 -91 -64 -96
-75 -5 -11 -28 -78 -51 -150 -23 -71 -71 -200 -107 -285 -37 -85 -79 -186 -95
-225 l-30 -70 6 77 c5 81 9 94 94 323 137 364 192 696 192 1145 0 498 -45 841
-151 1160 -37 109 -147 342 -210 445 -226 367 -569 652 -900 748 -130 38 -260
51 -455 45 -93 -3 -193 -3 -221 1 l-52 6 -60 90 c-33 50 -109 142 -167 205
-59 63 -142 167 -184 230 -54 82 -83 116 -99 118 -12 2 -19 8 -16 14 3 5 -4
17 -17 26 -39 27 -180 112 -186 112 -4 0 -36 -12 -72 -27 -127 -52 -291 -31
-365 46 l-27 28 -32 -30 c-88 -83 -254 -98 -382 -35 l-41 19 -88 -50 c-48 -28
-91 -51 -96 -51 -4 0 -13 -6 -19 -14 -10 -11 -8 -16 8 -21 43 -13 15 -37 -33
-28 -26 5 -28 4 -20 -18 5 -13 9 -76 8 -139 -1 -95 -6 -134 -31 -225 -74 -267
-103 -386 -113 -465 -13 -109 -14 -105 15 -86 13 9 26 16 28 16 2 0 0 -26 -5
-57 -14 -83 -3 -284 21 -379 55 -222 137 -399 294 -634 66 -98 100 -145 219
-296 45 -58 47 -62 27 -67 -16 -4 -20 -11 -15 -24 4 -10 -8 0 -26 22 -18 22
-48 56 -66 75 -31 33 -33 33 -27 10 3 -14 17 -68 31 -120 78 -298 113 -560
121 -910 6 -283 -3 -415 -37 -533 -29 -103 -31 -105 -70 -61 -56 64 -70 110
-73 231 -2 95 -5 112 -25 141 -29 39 -81 68 -144 77 -95 14 -201 -46 -244
-139 -30 -65 -30 -106 2 -225 58 -213 101 -299 191 -383 59 -54 105 -79 287
-152 74 -30 148 -62 164 -70 28 -14 29 -14 47 21 25 46 83 75 165 82 l65 6
-64 35 c-76 41 -157 117 -167 155 -4 16 6 105 24 214 75 449 80 508 92 1091 6
267 11 521 13 565 l2 80 22 -91 c46 -187 56 -314 50 -639 -6 -372 -27 -552
-113 -987 -21 -108 -32 -188 -28 -205 24 -102 251 -201 520 -227 59 -5 62 -4
73 21 20 43 80 110 111 123 17 7 30 14 30 17 0 3 -15 23 -34 46 -83 102 -108
202 -104 409 2 76 2 138 1 138 -7 0 -52 -95 -118 -249 -44 -101 -81 -178 -83
-172 -6 17 -22 13 -23 -6 0 -10 -3 -13 -5 -7 -2 6 12 55 31 109 63 172 122
384 154 555 80 412 132 554 317 861 120 201 150 270 166 387 7 50 16 88 20 86
10 -6 11 -228 2 -274 -4 -19 -16 -36 -29 -42 -16 -7 -35 -43 -68 -125 -45
-114 -46 -114 -19 -97 15 10 43 28 62 40 19 12 64 33 100 46 56 19 84 23 210
23 123 0 158 -4 229 -24 75 -21 299 -125 324 -150 5 -5 -37 6 -94 25 -142 47
-255 67 -379 68 -131 0 -203 -15 -306 -65 -139 -66 -245 -181 -324 -353 -22
-48 -40 -89 -40 -91 0 -3 17 2 38 11 71 32 162 64 162 57 0 -3 -35 -42 -78
-87 -89 -93 -133 -154 -168 -232 -30 -67 -30 -73 -1 -47 27 25 170 123 174
119 2 -1 -10 -27 -27 -57 -127 -235 -145 -496 -48 -683 49 -94 182 -220 293
-279 l90 -48 -60 6 c-236 22 -316 14 -400 -42 l-40 -27 45 -8 c266 -44 859
-72 1061 -49 523 61 844 249 1069 627 44 72 44 60 3 -41 -54 -129 -120 -225
-227 -329 -212 -205 -475 -315 -826 -346 -228 -20 -874 -8 -1160 20 -58 6
-156 20 -219 30 -205 36 -313 23 -345 -39 -52 -100 24 -225 171 -281 124 -47
234 -62 413 -57 91 2 136 2 100 -2 -77 -7 -67 -20 23 -29 56 -5 47 -7 -93 -19
-169 -14 -259 -8 -394 27 -186 47 -321 162 -357 303 -6 26 -16 47 -23 47 -11
0 -237 88 -286 112 -14 7 -28 14 -32 16 -5 2 -8 -10 -8 -27 0 -26 9 -36 58
-69 55 -38 103 -82 88 -82 -4 0 -22 10 -39 23 -18 13 -45 29 -60 35 -27 11
-28 11 -22 -9 6 -16 -2 -13 -35 17 -104 96 -102 93 -95 124 5 24 3 31 -12 37
-10 3 -42 21 -71 40 -29 18 -97 55 -150 82 -162 81 -381 225 -562 369 -123 98
-404 379 -507 507 -463 578 -759 1336 -828 2115 -74 832 148 1640 642 2337
242 342 596 696 913 915 l65 45 17 143 c9 80 16 145 15 146 -5 5 -301 -197
-383 -261 -495 -387 -893 -878 -1173 -1445 -293 -594 -432 -1200 -432 -1885 0
-365 32 -627 121 -991 131 -536 389 -1080 719 -1519 164 -218 427 -502 616
-664 622 -534 1349 -854 2150 -947 184 -22 633 -25 805 -6 516 57 927 174
1355 387 984 491 1743 1373 2096 2435 255 770 287 1536 99 2318 -226 936 -772
1764 -1540 2334 -650 483 -1390 754 -2175 798 -183 11 -266 10 -453 -1z m-867
-2955 c111 -37 199 -31 317 21 124 55 129 55 88 8 -49 -56 -130 -109 -191
-123 -119 -29 -259 17 -337 109 -23 27 -42 52 -42 56 0 3 19 -5 43 -19 23 -14
78 -37 122 -52z m3003 -4469 c-7 -7 -12 -6 -15 1 -3 8 -15 9 -41 2 -20 -5 -47
-12 -60 -15 -12 -3 -25 -9 -28 -14 -3 -5 -10 -9 -17 -9 -6 0 7 13 29 30 23 16
58 45 80 65 l38 35 13 -42 c9 -31 9 -46 1 -53z m-1 -47 c-3 -7 -5 -2 -5 12 0
14 2 19 5 13 2 -7 2 -19 0 -25z"/>
<path d="M3157 8788 c-71 -306 -80 -661 -27 -1018 11 -74 20 -152 20 -173 0
-52 -30 -168 -97 -372 -47 -144 -56 -182 -57 -250 0 -44 2 -96 7 -116 l7 -36
223 -6 c238 -6 414 -29 517 -67 l55 -20 -77 5 c-62 4 -77 2 -82 -11 -7 -18 1
-20 78 -28 87 -9 106 -25 30 -26 -82 0 -124 -9 -124 -27 0 -9 7 -12 18 -9 9 2
53 7 97 10 l80 5 -70 -24 c-38 -13 -78 -24 -87 -24 -20 -1 -29 -13 -20 -27 5
-7 37 -7 102 1 102 13 145 9 94 -9 -47 -18 -114 -60 -111 -71 6 -19 92 -44
151 -44 82 -1 128 15 187 66 28 23 58 43 68 43 9 0 30 -14 47 -31 71 -76 197
-100 308 -58 31 11 58 24 60 28 3 4 -27 24 -67 45 l-72 38 103 -6 c86 -5 102
-4 102 9 0 14 -33 26 -108 41 -66 13 -42 24 37 18 53 -5 81 -3 81 3 0 16 -36
23 -125 24 l-80 1 60 14 c33 7 79 13 103 14 38 0 42 2 33 19 -9 16 -20 18 -88
14 l-78 -4 75 25 c106 35 282 56 517 63 l202 6 12 56 c17 81 5 180 -37 317
-51 167 -84 294 -84 329 0 17 18 92 40 168 61 213 74 320 67 587 -6 213 -10
253 -54 488 -3 18 -10 35 -14 38 -15 9 -117 -59 -220 -145 -146 -122 -342
-337 -455 -498 -20 -29 -34 -41 -44 -36 -173 74 -404 88 -538 32 l-53 -22 -17
24 c-115 166 -305 383 -440 507 -125 114 -218 192 -229 192 -5 0 -17 -33 -26
-72z m1902 -167 c-8 -10 -56 -74 -107 -142 -51 -68 -105 -144 -119 -167 l-25
-44 25 17 c32 20 162 31 233 20 l49 -9 -75 -8 c-129 -14 -195 -42 -265 -112
-33 -34 -65 -70 -72 -81 -11 -17 -11 -16 -7 15 22 141 93 260 249 418 101 102
149 141 114 93z m-1670 -47 c148 -134 282 -358 281 -468 l-1 -31 -19 36 c-27
51 -92 107 -167 141 -49 24 -83 31 -149 36 -46 2 -83 6 -81 8 2 2 32 8 68 13
83 11 181 -2 222 -31 l31 -23 -24 40 c-31 51 -163 237 -207 293 -48 58 -28 53
46 -14z m61 -204 c19 -10 44 -28 55 -41 l20 -24 -20 16 c-11 9 -47 31 -80 48
-33 17 -49 29 -35 25 14 -4 41 -15 60 -24z m1515 12 c-21 -18 -107 -64 -101
-53 4 6 28 22 54 36 50 26 62 30 47 17z m-1471 -198 c44 -15 125 -78 114 -89
-3 -3 -34 7 -69 23 -79 36 -155 54 -220 54 -27 0 -49 2 -49 4 0 2 15 8 33 13
51 15 139 12 191 -5z m1551 2 l50 -14 -61 -1 c-70 -1 -179 -32 -241 -68 -39
-22 -41 -23 -36 -4 13 50 109 99 198 100 22 0 63 -6 90 -13z m-1497 -105 c13
-8 1 -11 -48 -11 -62 0 -176 -14 -216 -25 -10 -3 0 4 24 15 79 38 193 48 240
21z m1482 -24 c30 -15 47 -25 37 -22 -32 9 -140 25 -212 31 -93 9 -59 25 45
21 58 -2 87 -9 130 -30z m-1257 -608 c99 -51 162 -131 192 -244 20 -80 19
-111 -8 -170 l-24 -50 -5 85 c-5 71 -12 100 -42 165 -64 138 -153 195 -305
195 -43 0 -97 -7 -120 -15 -53 -18 -52 -11 2 17 97 51 229 58 310 17z m1017
-7 c25 -11 54 -27 65 -36 18 -15 16 -15 -15 0 -51 25 -165 30 -231 10 -147
-44 -248 -195 -249 -375 l-1 -66 -19 35 c-26 49 -32 96 -20 159 27 145 115
251 240 292 44 15 181 4 230 -19z m-1237 -52 c-69 -31 -81 -86 -39 -175 63
-135 210 -176 329 -92 16 10 30 17 33 14 12 -11 -50 -66 -98 -87 -92 -40 -197
-13 -271 69 -49 55 -63 85 -80 174 l-15 77 37 10 c20 5 44 10 54 10 9 0 17 5
17 10 0 6 17 10 38 9 l37 0 -42 -19z m1241 -5 c38 -8 71 -17 73 -19 3 -3 -2
-42 -12 -87 -23 -116 -83 -197 -172 -234 -76 -32 -190 -9 -248 49 -41 41 -29
47 31 15 141 -74 291 -1 324 156 14 69 4 90 -60 116 -55 22 -29 24 64 4z
m-1110 -1 c23 -9 20 -57 -5 -80 -20 -18 -21 -18 -35 1 -8 10 -14 34 -14 52 0
34 16 42 54 27z m961 -26 c7 -20 -18 -68 -35 -68 -11 0 -40 40 -40 57 0 39 63
49 75 11z m-648 -543 c52 14 226 13 268 -1 36 -12 41 -12 52 3 23 30 25 6 4
-36 -15 -28 -30 -43 -49 -47 -38 -9 -61 -32 -68 -68 -7 -39 -23 -61 -51 -70
-37 -12 -61 10 -78 68 -12 41 -21 55 -39 60 -35 9 -73 43 -85 77 -9 27 -9 30
4 19 9 -8 25 -9 42 -5z"/>
<path d="M2962 6780 c-111 -11 -311 -46 -373 -65 -60 -19 -48 -18 126 5 224
31 663 51 650 30 -3 -5 -39 -10 -79 -10 -40 0 -107 -3 -149 -6 l-76 -7 15 -29
15 -30 97 7 c53 4 135 11 182 16 47 5 119 9 161 9 71 0 77 2 82 22 4 12 4 24
2 26 -2 3 -55 11 -117 18 -147 18 -418 25 -536 14z"/>
<path d="M4820 6770 c-36 -5 -89 -12 -118 -15 -47 -6 -53 -9 -50 -28 3 -20 11
-23 98 -29 52 -3 167 -13 255 -22 159 -15 160 -15 178 5 34 42 24 46 -105 53
-141 8 -221 16 -215 23 10 10 491 -18 627 -36 247 -33 243 -33 165 -11 -179
50 -280 63 -530 66 -132 1 -269 -1 -305 -6z"/>
<path d="M3275 6649 c-163 -10 -237 -20 -395 -55 -121 -27 -365 -102 -357
-110 2 -3 67 11 144 30 147 37 633 130 640 122 2 -2 -17 -9 -44 -14 -86 -19
-105 -29 -94 -51 17 -31 37 -32 164 -1 67 16 157 36 200 45 164 36 39 52 -258
34z"/>
<path d="M4650 6647 c0 -9 29 -20 83 -31 45 -10 137 -34 205 -53 l123 -35 25
23 c13 12 24 28 24 34 0 20 -287 73 -397 74 -46 1 -63 -3 -63 -12z"/>
<path d="M4990 6635 c30 -8 138 -30 240 -50 102 -20 247 -52 324 -71 76 -19
141 -33 143 -30 5 5 -117 48 -212 75 -121 35 -256 62 -375 76 -147 18 -195 18
-120 0z"/>
<path d="M6772 6600 c-202 -28 -352 -121 -419 -258 -36 -73 -44 -185 -18 -262
43 -130 172 -220 329 -228 113 -6 178 14 244 73 61 55 77 96 68 176 l-6 59 66
0 c168 0 333 -84 486 -250 l75 -80 64 0 c107 0 240 -44 326 -106 21 -15 66
-55 101 -88 34 -33 62 -56 62 -50 0 25 -57 179 -100 271 -182 386 -505 642
-918 728 -92 19 -277 27 -360 15z"/>
<path d="M4640 6576 c0 -9 45 -29 121 -55 67 -23 140 -50 161 -61 37 -18 42
-18 64 -3 23 15 29 14 97 -12 40 -15 164 -68 275 -116 112 -49 207 -89 210
-89 18 1 -108 71 -243 136 -174 84 -269 117 -490 173 -175 45 -195 48 -195 27z"/>
<path d="M3465 6554 c-55 -13 -129 -28 -165 -34 -109 -18 -296 -87 -479 -176
-95 -47 -171 -87 -169 -89 4 -5 44 11 298 117 118 48 287 108 308 108 9 0 25
-9 37 -20 l21 -20 117 44 c64 24 132 48 149 51 44 10 48 13 41 30 -7 20 -37
18 -158 -11z"/>
<path d="M3711 6539 c-18 -6 -31 -12 -28 -15 6 -6 87 14 87 21 0 7 -20 5 -59
-6z"/>
<path d="M4530 6536 c19 -7 42 -11 50 -7 10 4 5 8 -15 12 -52 11 -72 8 -35 -5z"/>
<path d="M4612 6518 c-8 -8 9 -23 71 -61 45 -28 95 -61 110 -74 l28 -23 51 26
c27 14 57 23 65 19 13 -4 14 -3 4 9 -15 18 -140 67 -242 96 -40 11 -74 20 -74
20 -1 0 -6 -5 -13 -12z"/>
<path d="M3625 6515 c-188 -58 -285 -90 -285 -95 0 -3 25 -17 56 -30 44 -18
60 -21 73 -12 9 7 58 35 109 63 76 42 91 54 81 65 -11 14 -15 15 -34 9z"/>
<path d="M3300 6400 c-8 -5 -10 -10 -5 -10 6 0 17 5 25 10 8 5 11 10 5 10 -5
0 -17 -5 -25 -10z"/>
<path d="M3208 6359 c-21 -11 -38 -22 -38 -24 0 -5 79 32 89 41 12 11 -18 1
-51 -17z"/>
</g>
</svg>
