<?xml version="1.0" standalone="no"?>
<!DOCTYPE svg PUBLIC "-//W3C//DTD SVG 20010904//EN"
 "http://www.w3.org/TR/2001/REC-SVG-20010904/DTD/svg10.dtd">
<svg version="1.0" xmlns="http://www.w3.org/2000/svg"
 width="1024.000000pt" height="205.000000pt" viewBox="0 0 1024.000000 205.000000"
 preserveAspectRatio="xMidYMid meet">

<g transform="translate(0.000000,205.000000) scale(0.100000,-0.100000)"
fill="#000000" stroke="none">
<path d="M960 1853 c-74 -7 -156 -26 -222 -50 -67 -25 -69 -27 -51 -44 17 -17
22 -16 108 14 81 28 102 31 215 31 76 1 146 -4 179 -13 313 -80 540 -331 581
-643 30 -228 -65 -467 -242 -607 -56 -43 -66 -57 -86 -115 -23 -65 -34 -77
-48 -54 -4 6 -3 8 3 5 15 -9 52 108 62 194 35 316 -103 559 -319 559 l-65 0
-68 80 c-38 44 -75 80 -84 80 -8 0 -28 -11 -45 -25 -38 -32 -59 -32 -97 1 -20
16 -39 24 -51 21 -11 -3 -18 -1 -15 3 8 14 -36 23 -48 11 -9 -9 -6 -13 10 -17
24 -7 23 -28 -2 -132 -9 -37 -11 -72 -4 -122 9 -76 23 -109 75 -183 36 -50 42
-63 22 -51 -8 5 -9 0 -5 -17 16 -58 28 -208 20 -248 -10 -50 -27 -58 -31 -16
-5 39 -19 55 -48 55 -43 0 -51 -38 -22 -114 16 -40 98 -79 133 -62 24 11 24
11 4 30 -14 12 -19 26 -15 40 10 41 26 201 27 276 1 73 1 74 11 30 10 -48 5
-140 -14 -259 -14 -83 -8 -93 59 -106 39 -7 81 18 64 39 -5 6 -12 29 -16 50
-8 39 -8 39 -22 15 -11 -19 -13 -20 -9 -4 3 11 14 59 25 106 20 85 109 279 99
214 -3 -16 -9 -38 -13 -49 -7 -16 -6 -17 13 -7 28 15 80 13 117 -4 29 -13 28
-13 -22 -8 -63 7 -106 -9 -133 -47 -24 -34 -25 -40 -3 -40 14 0 14 -3 -4 -22
-11 -13 -24 -30 -28 -38 -8 -13 -7 -13 10 0 17 14 18 13 11 -5 -5 -11 -11 -41
-13 -67 -5 -45 -3 -50 35 -88 l40 -40 -42 0 c-32 -1 -37 -3 -24 -11 9 -5 61
-10 115 -11 136 -1 201 19 261 80 42 44 44 45 26 13 -24 -43 -85 -88 -138
-102 -47 -13 -192 -15 -318 -5 l-88 8 0 -26 c0 -30 9 -36 75 -53 l50 -13 -47
4 c-53 4 -98 28 -105 56 -3 10 -12 20 -21 23 -10 3 -26 8 -36 13 -14 5 -17 4
-12 -4 4 -7 3 -12 -3 -12 -6 0 -15 9 -20 19 -6 10 -34 32 -63 49 -198 112
-326 313 -360 563 -30 230 58 453 247 626 59 54 76 75 73 92 -3 21 -7 20 -70
-28 -124 -94 -222 -235 -280 -401 -32 -92 -33 -99 -33 -260 0 -160 1 -168 33
-260 101 -292 329 -498 616 -556 107 -22 273 -15 371 16 224 70 397 221 500
434 67 139 79 197 80 366 0 122 -4 158 -23 225 -81 281 -308 504 -582 573 -77
20 -199 32 -260 25z"/>
<path d="M625 1711 c-4 -33 -4 -93 0 -133 4 -53 2 -86 -9 -123 -25 -81 -25
-82 54 -89 40 -4 68 -11 65 -17 -4 -5 1 -9 10 -9 9 0 13 -4 10 -10 -3 -5 0
-10 7 -10 10 0 9 -3 -2 -10 -12 -7 -12 -10 4 -16 10 -4 28 -2 38 5 16 10 26
10 49 1 33 -14 74 -5 49 10 -11 7 -12 10 -2 10 7 0 10 5 7 10 -3 6 -1 10 5 10
6 0 9 4 6 9 -3 5 26 12 65 16 l71 7 -7 47 c-10 59 -10 111 0 187 8 68 -1 154
-16 154 -5 0 -38 -28 -72 -63 l-62 -62 -61 1 -62 1 -62 66 c-34 37 -66 67 -70
67 -4 0 -11 -27 -15 -59z m104 -62 c5 -16 7 -28 3 -27 -4 1 -15 -2 -24 -6 -10
-4 -23 -6 -30 -3 -7 3 -2 6 12 7 l25 2 -25 9 c-25 9 -25 9 3 5 36 -4 34 2 -5
20 -31 14 -31 15 -6 11 l27 -4 -21 31 -22 31 27 -24 c14 -13 30 -36 36 -52z
m261 44 c-14 -18 -17 -29 -10 -31 9 -3 8 -7 -1 -13 -10 -6 -7 -9 11 -10 l25
-1 -25 -8 c-19 -6 -21 -8 -6 -9 11 -1 17 -3 14 -6 -10 -11 -58 7 -58 21 0 13
57 84 67 84 2 0 -5 -12 -17 -27z m-222 -210 c20 -17 41 -73 28 -73 -3 0 -12
16 -20 35 -14 33 -29 44 -39 28 -2 -5 -2 -2 -1 5 6 21 -24 13 -31 -8 -8 -26 9
-48 43 -53 19 -3 17 -4 -8 -3 -28 1 -38 7 -49 30 -12 26 -12 31 5 43 24 18 48
16 72 -4z m188 3 c17 -18 18 -48 2 -64 -15 -15 -65 -16 -74 -1 -4 8 -9 7 -16
-2 -7 -10 -8 -4 -3 16 6 32 38 65 62 65 8 0 21 -6 29 -14z m-96 -123 c0 -5 -7
-17 -15 -27 -15 -20 -15 -20 -34 1 -11 11 -17 24 -14 27 9 9 63 7 63 -1z"/>
<path d="M930 1475 c0 -17 -2 -18 -10 -5 -9 13 -12 12 -25 -5 -21 -26 -14 -40
20 -40 38 0 56 29 32 52 -16 16 -17 16 -17 -2z"/>
<path d="M610 1350 c13 -9 119 -15 109 -6 -2 2 -31 6 -64 10 -41 4 -55 3 -45
-4z"/>
<path d="M970 1350 l-45 -7 58 -1 c37 -1 56 2 52 8 -3 6 -9 9 -13 8 -4 0 -27
-4 -52 -8z"/>
<path d="M640 1320 c0 -6 11 -8 28 -4 39 10 40 14 4 14 -18 0 -32 -5 -32 -10z"/>
<path d="M943 1322 c-6 -4 9 -7 33 -8 24 0 44 3 44 8 0 10 -61 11 -77 0z"/>
<path d="M1315 1308 c-31 -17 -45 -39 -45 -74 0 -35 12 -49 53 -59 33 -9 82
19 73 41 -8 22 41 18 80 -7 19 -11 34 -24 34 -29 0 -4 16 -10 36 -13 20 -4 47
-16 60 -28 30 -28 30 -20 0 39 -30 58 -68 95 -126 121 -49 22 -133 27 -165 9z"/>
<path d="M951 1301 c-9 -6 -10 -11 -2 -15 15 -10 53 3 46 15 -8 11 -26 11 -44
0z"/>
<path d="M2120 1292 c0 -14 9 -21 30 -25 16 -4 39 -16 50 -27 19 -19 20 -31
20 -439 0 -405 -1 -419 -20 -444 -11 -14 -33 -27 -48 -29 -16 -2 -28 -10 -30
-20 -3 -17 10 -18 167 -18 143 0 171 2 171 15 0 8 -14 17 -37 21 -49 9 -89 29
-97 49 -3 9 -6 109 -6 221 0 165 3 206 14 210 24 9 179 -17 236 -39 87 -35 95
-52 130 -297 19 -129 58 -179 147 -187 112 -10 156 80 105 209 -15 36 -30 36
-38 1 -13 -62 -26 -92 -41 -97 -30 -12 -40 13 -45 107 -12 201 -72 281 -234
307 -130 22 -125 19 -67 47 29 13 66 40 82 60 28 34 34 49 66 183 15 60 46
110 69 110 5 0 21 -14 35 -30 35 -40 78 -48 114 -20 51 41 29 119 -40 136 -33
9 -115 -18 -161 -53 -42 -32 -60 -68 -78 -161 -23 -118 -49 -154 -148 -202
-88 -43 -130 -50 -140 -24 -9 23 -7 367 2 381 11 17 58 33 98 33 27 0 34 4 34
19 0 18 -10 19 -170 21 -161 1 -170 0 -170 -18z"/>
<path d="M800 1285 l-25 -13 28 -7 c15 -4 39 -4 54 0 l28 7 -25 13 c-14 8 -27
14 -30 14 -3 0 -16 -6 -30 -14z"/>
<path d="M5373 1053 c-120 -3 -153 -6 -153 -17 0 -7 13 -16 29 -19 62 -13 61
-9 61 -341 0 -327 0 -330 -55 -344 -17 -5 -32 -16 -33 -26 -4 -17 11 -18 255
-14 243 3 261 5 308 26 66 30 103 67 116 116 33 124 -19 228 -125 252 l-30 6
30 15 c72 37 104 88 104 165 -1 73 -28 130 -74 152 -38 18 -175 37 -241 34
-22 -1 -109 -4 -192 -5z m340 -63 c14 -11 31 -37 38 -57 13 -40 7 -150 -11
-183 -16 -30 -75 -41 -200 -38 l-115 3 -3 148 -3 147 134 0 c120 0 137 -2 160
-20z m-4 -345 c58 -34 76 -68 75 -138 -1 -64 -18 -110 -50 -138 -31 -27 -83
-39 -192 -46 -84 -5 -106 -3 -113 8 -11 17 -12 323 -1 333 4 4 61 6 127 4 98
-2 126 -7 154 -23z"/>
<path d="M7615 1011 c-53 -13 -91 -39 -147 -100 -74 -79 -92 -133 -92 -266 2
-162 53 -258 170 -316 41 -20 63 -24 134 -23 123 1 198 39 260 132 56 85 27
100 -46 22 -60 -64 -112 -84 -198 -78 -83 7 -124 33 -161 99 -20 38 -29 71
-33 121 l-5 68 238 0 238 0 -5 68 c-14 196 -171 317 -353 273z m139 -75 c52
-30 86 -89 93 -161 l6 -55 -178 0 -178 0 5 43 c9 75 42 133 94 167 59 37 103
38 158 6z"/>
<path d="M6711 998 c-69 -19 -162 -102 -201 -178 -53 -101 -52 -287 2 -394 29
-57 105 -133 146 -147 21 -7 71 -13 112 -13 92 0 172 32 214 87 25 33 66 124
66 147 0 24 -22 6 -53 -42 -41 -64 -92 -113 -130 -127 -40 -15 -133 -14 -165
3 -34 18 -75 62 -95 101 -49 99 -48 284 3 385 21 42 99 116 136 130 70 27 175
0 203 -51 13 -24 13 -29 -7 -54 -26 -33 -28 -53 -6 -83 16 -24 53 -29 84 -12
25 13 34 67 21 118 -13 45 -70 100 -134 127 -41 17 -143 19 -196 3z"/>
<path d="M3375 991 c-49 -13 -69 -27 -133 -96 -81 -86 -107 -164 -99 -294 7
-116 36 -191 102 -257 66 -67 129 -89 231 -81 125 9 214 67 263 172 52 111 51
287 -3 392 -24 48 -101 129 -146 153 -28 15 -172 23 -215 11z m193 -68 c116
-94 145 -343 60 -513 -27 -54 -41 -69 -78 -88 -110 -55 -222 -7 -282 123 -20
44 -23 66 -23 180 0 119 2 135 26 185 29 62 78 116 124 137 50 22 129 12 173
-24z"/>
<path d="M4040 870 c0 -97 3 -120 14 -120 9 0 21 21 30 54 26 88 128 160 200
142 l26 -6 0 -295 0 -294 -30 -16 c-16 -8 -43 -15 -60 -15 -23 0 -30 -4 -30
-20 0 -19 7 -20 165 -20 158 0 165 1 165 20 0 15 -7 20 -25 20 -45 0 -84 27
-90 63 -3 17 -5 151 -3 297 l3 265 34 3 c80 8 170 -59 206 -151 12 -33 23 -47
37 -47 17 0 18 8 16 118 l-3 117 -327 3 -328 2 0 -120z"/>
<path d="M8240 870 c0 -97 3 -120 14 -120 9 0 21 21 30 54 26 88 128 160 200
142 l26 -6 0 -295 0 -294 -30 -16 c-16 -8 -43 -15 -60 -15 -23 0 -30 -4 -30
-20 0 -19 7 -20 165 -20 158 0 165 1 165 20 0 15 -7 20 -25 20 -45 0 -84 27
-90 63 -3 17 -5 151 -3 297 l3 265 34 3 c80 8 170 -59 206 -151 12 -33 23 -47
37 -47 17 0 18 8 16 118 l-3 117 -327 3 -328 2 0 -120z"/>
<path d="M9102 974 c2 -10 16 -21 33 -26 54 -14 55 -18 55 -324 0 -219 -3
-284 -13 -292 -7 -6 -31 -14 -53 -18 -25 -4 -41 -11 -41 -20 0 -11 29 -14 154
-14 129 0 153 2 153 15 0 10 -10 15 -30 15 -36 0 -70 31 -70 63 0 20 74 111
326 401 l34 39 0 -235 c0 -256 1 -252 -58 -264 -18 -4 -32 -13 -32 -20 0 -11
29 -14 145 -14 116 0 145 3 145 14 0 7 -14 16 -32 20 -69 14 -68 8 -68 321 0
256 2 283 18 298 9 8 28 17 42 19 14 2 25 10 25 18 0 12 -23 15 -132 18 -128
2 -133 2 -133 -18 0 -15 7 -20 28 -20 33 0 52 -16 52 -43 0 -10 -80 -115 -177
-232 l-178 -213 -3 216 c-1 119 0 227 3 239 3 12 18 26 36 32 17 6 29 16 27
23 -3 9 -40 14 -132 16 -116 2 -127 1 -124 -14z"/>
</g>
</svg>
